<mxfile host="Electron" modified="2023-10-24T09:41:04.327Z" agent="Mozilla/5.0 (Windows NT 10.0; Win64; x64) AppleWebKit/537.36 (KHTML, like Gecko) draw.io/22.0.0 Chrome/114.0.5735.289 Electron/25.8.3 Safari/537.36" etag="SDRdB9gjrpRdfVBr__JK" version="22.0.0" type="device">
  <diagram name="Page-1" id="-W7CJRKAOoy7hncCig_4">
    <mxGraphModel dx="792" dy="1187" grid="1" gridSize="10" guides="1" tooltips="1" connect="1" arrows="1" fold="1" page="1" pageScale="1" pageWidth="827" pageHeight="1169" math="0" shadow="0">
      <root>
        <mxCell id="0" />
        <mxCell id="1" parent="0" />
        <mxCell id="pVRv-Dmd_xkQY870g2fn-43" value="&lt;b&gt;Task 2&lt;br&gt;join()&lt;br&gt;&lt;/b&gt;" style="rounded=0;whiteSpace=wrap;html=1;sketch=1;hachureGap=4;jiggle=2;curveFitting=1;fontFamily=Architects Daughter;fontSource=https%3A%2F%2Ffonts.googleapis.com%2Fcss%3Ffamily%3DArchitects%2BDaughter;fontSize=20;fillColor=#d5e8d4;strokeColor=#82b366;" parent="1" vertex="1">
          <mxGeometry x="414" y="250" width="120" height="60" as="geometry" />
        </mxCell>
        <mxCell id="pVRv-Dmd_xkQY870g2fn-2" value="&lt;b&gt;Topic A&lt;/b&gt;" style="rounded=0;whiteSpace=wrap;html=1;sketch=1;hachureGap=4;jiggle=2;curveFitting=1;fontFamily=Architects Daughter;fontSource=https%3A%2F%2Ffonts.googleapis.com%2Fcss%3Ffamily%3DArchitects%2BDaughter;fontSize=20;verticalAlign=top;" parent="1" vertex="1">
          <mxGeometry x="130" y="80" width="190" height="130" as="geometry" />
        </mxCell>
        <mxCell id="ij-hmr-FOTUTYZy1ERz8-3" style="edgeStyle=entityRelationEdgeStyle;rounded=0;sketch=1;hachureGap=4;jiggle=2;curveFitting=1;orthogonalLoop=1;jettySize=auto;html=1;exitX=1;exitY=0.5;exitDx=0;exitDy=0;entryX=0;entryY=0.5;entryDx=0;entryDy=0;fontFamily=Architects Daughter;fontSource=https%3A%2F%2Ffonts.googleapis.com%2Fcss%3Ffamily%3DArchitects%2BDaughter;fontSize=16;" edge="1" parent="1" source="pVRv-Dmd_xkQY870g2fn-3" target="pVRv-Dmd_xkQY870g2fn-40">
          <mxGeometry relative="1" as="geometry" />
        </mxCell>
        <mxCell id="pVRv-Dmd_xkQY870g2fn-3" value="(A,1) -&amp;gt; (C,2) -&amp;gt; (A,2)&lt;br style=&quot;font-size: 16px;&quot;&gt;&lt;b style=&quot;font-size: 16px;&quot;&gt;&lt;font style=&quot;font-size: 16px;&quot;&gt;Partition -1&lt;/font&gt;&lt;/b&gt;" style="rounded=0;whiteSpace=wrap;html=1;sketch=1;hachureGap=4;jiggle=2;curveFitting=1;fontFamily=Architects Daughter;fontSource=https%3A%2F%2Ffonts.googleapis.com%2Fcss%3Ffamily%3DArchitects%2BDaughter;fontSize=16;fillColor=#f8cecc;strokeColor=#b85450;" parent="1" vertex="1">
          <mxGeometry x="140" y="120" width="160" height="60" as="geometry" />
        </mxCell>
        <mxCell id="pVRv-Dmd_xkQY870g2fn-37" value="&lt;b&gt;Topic B&lt;/b&gt;" style="rounded=0;whiteSpace=wrap;html=1;sketch=1;hachureGap=4;jiggle=2;curveFitting=1;fontFamily=Architects Daughter;fontSource=https%3A%2F%2Ffonts.googleapis.com%2Fcss%3Ffamily%3DArchitects%2BDaughter;fontSize=20;verticalAlign=top;" parent="1" vertex="1">
          <mxGeometry x="130" y="240" width="190" height="216" as="geometry" />
        </mxCell>
        <mxCell id="ij-hmr-FOTUTYZy1ERz8-4" style="edgeStyle=entityRelationEdgeStyle;rounded=0;sketch=1;hachureGap=4;jiggle=2;curveFitting=1;orthogonalLoop=1;jettySize=auto;html=1;exitX=1;exitY=0.5;exitDx=0;exitDy=0;entryX=0;entryY=0.75;entryDx=0;entryDy=0;fontFamily=Architects Daughter;fontSource=https%3A%2F%2Ffonts.googleapis.com%2Fcss%3Ffamily%3DArchitects%2BDaughter;fontSize=16;" edge="1" parent="1" source="pVRv-Dmd_xkQY870g2fn-38" target="pVRv-Dmd_xkQY870g2fn-40">
          <mxGeometry relative="1" as="geometry" />
        </mxCell>
        <mxCell id="pVRv-Dmd_xkQY870g2fn-38" value="(A,6) -&amp;gt; (C,4) -&amp;gt; (C,3)&lt;br style=&quot;font-size: 16px;&quot;&gt;&lt;b style=&quot;font-size: 16px;&quot;&gt;&lt;font style=&quot;font-size: 16px;&quot;&gt;Partition -1&lt;/font&gt;&lt;/b&gt;" style="rounded=0;whiteSpace=wrap;html=1;sketch=1;hachureGap=4;jiggle=2;curveFitting=1;fontFamily=Architects Daughter;fontSource=https%3A%2F%2Ffonts.googleapis.com%2Fcss%3Ffamily%3DArchitects%2BDaughter;fontSize=16;fillColor=#f8cecc;strokeColor=#b85450;" parent="1" vertex="1">
          <mxGeometry x="140" y="280" width="160" height="60" as="geometry" />
        </mxCell>
        <mxCell id="ij-hmr-FOTUTYZy1ERz8-6" style="edgeStyle=entityRelationEdgeStyle;rounded=0;sketch=1;hachureGap=4;jiggle=2;curveFitting=1;orthogonalLoop=1;jettySize=auto;html=1;exitX=1;exitY=0.5;exitDx=0;exitDy=0;entryX=0;entryY=0.5;entryDx=0;entryDy=0;fontFamily=Architects Daughter;fontSource=https%3A%2F%2Ffonts.googleapis.com%2Fcss%3Ffamily%3DArchitects%2BDaughter;fontSize=16;fillColor=#f8cecc;strokeColor=#b85450;dashed=1;" edge="1" parent="1" source="pVRv-Dmd_xkQY870g2fn-39" target="pVRv-Dmd_xkQY870g2fn-43">
          <mxGeometry relative="1" as="geometry" />
        </mxCell>
        <mxCell id="pVRv-Dmd_xkQY870g2fn-39" value="(B,4) -&amp;gt; (B,5)&lt;br style=&quot;font-size: 16px;&quot;&gt;&lt;b style=&quot;font-size: 16px;&quot;&gt;&lt;font style=&quot;font-size: 16px;&quot;&gt;Partition -2&lt;/font&gt;&lt;/b&gt;" style="rounded=0;whiteSpace=wrap;html=1;sketch=1;hachureGap=4;jiggle=2;curveFitting=1;fontFamily=Architects Daughter;fontSource=https%3A%2F%2Ffonts.googleapis.com%2Fcss%3Ffamily%3DArchitects%2BDaughter;fontSize=16;fillColor=#f8cecc;strokeColor=#b85450;" parent="1" vertex="1">
          <mxGeometry x="140" y="370" width="160" height="60" as="geometry" />
        </mxCell>
        <mxCell id="pVRv-Dmd_xkQY870g2fn-40" value="&lt;b&gt;Task 1&lt;br&gt;join()&lt;br&gt;&lt;/b&gt;" style="rounded=0;whiteSpace=wrap;html=1;sketch=1;hachureGap=4;jiggle=2;curveFitting=1;fontFamily=Architects Daughter;fontSource=https%3A%2F%2Ffonts.googleapis.com%2Fcss%3Ffamily%3DArchitects%2BDaughter;fontSize=20;fillColor=#d5e8d4;strokeColor=#82b366;" parent="1" vertex="1">
          <mxGeometry x="414" y="160" width="120" height="60" as="geometry" />
        </mxCell>
        <mxCell id="pVRv-Dmd_xkQY870g2fn-49" value="No Co-partition" style="verticalLabelPosition=bottom;verticalAlign=top;html=1;shape=mxgraph.basic.x;sketch=1;hachureGap=4;jiggle=2;curveFitting=1;fontFamily=Architects Daughter;fontSource=https%3A%2F%2Ffonts.googleapis.com%2Fcss%3Ffamily%3DArchitects%2BDaughter;fontSize=20;fillColor=#f8cecc;strokeColor=#b85450;fontStyle=1;" parent="1" vertex="1">
          <mxGeometry x="414" y="353" width="114" height="94" as="geometry" />
        </mxCell>
      </root>
    </mxGraphModel>
  </diagram>
</mxfile>
